<?xml version="1.0" standalone="no"?>
<!DOCTYPE svg PUBLIC "-//W3C//DTD SVG 20010904//EN"
 "http://www.w3.org/TR/2001/REC-SVG-20010904/DTD/svg10.dtd">
<svg version="1.0" xmlns="http://www.w3.org/2000/svg"
 width="512.000000pt" height="512.000000pt" viewBox="0 0 512.000000 512.000000"
 preserveAspectRatio="xMidYMid meet">
<metadata>
Created by potrace 1.16, written by Peter Selinger 2001-2019
</metadata>
<g transform="translate(0.000000,512.000000) scale(0.100000,-0.100000)"
fill="#000000" stroke="none">
<path d="M2140 4210 l0 -910 -449 0 -448 0 -6 -517 c-7 -637 -23 -826 -106
-1233 -88 -431 -218 -798 -450 -1268 l-140 -282 1375 0 1375 0 109 223 c328
673 494 1313 540 2074 5 95 10 359 10 588 l0 415 -450 0 -450 0 0 910 0 910
-455 0 -455 0 0 -910z m600 -150 l0 -760 -145 0 -145 0 0 760 0 760 145 0 145
0 0 -760z m900 -1210 l0 -150 -1045 0 -1045 0 0 150 0 150 1045 0 1045 0 0
-150z m-1810 -522 c0 -76 -21 -316 -40 -453 -43 -309 -130 -668 -235 -963 -21
-57 -33 -108 -29 -112 13 -12 276 -111 282 -106 14 14 137 410 176 566 90 357
156 805 156 1058 l0 82 145 0 145 0 0 -72 c0 -76 -21 -316 -40 -453 -43 -309
-130 -668 -235 -963 -21 -57 -33 -108 -29 -112 13 -12 276 -111 282 -106 14
14 137 410 176 566 90 357 156 805 156 1058 l0 82 145 0 145 0 0 -72 c0 -76
-21 -316 -40 -453 -43 -309 -130 -668 -235 -963 -21 -57 -33 -108 -29 -112 13
-12 276 -111 282 -106 14 14 137 410 176 566 90 357 156 805 156 1058 l0 82
147 0 146 0 -7 -132 c-30 -607 -200 -1270 -466 -1825 l-69 -143 -1025 0 -1025
0 18 43 c10 23 31 69 46 102 236 523 403 1224 431 1813 l7 142 144 0 143 0 0
-72z"/>
<path d="M385 860 l-110 -110 110 -110 110 -110 110 110 110 110 -110 110
-110 110 -110 -110z"/>
<path d="M3985 860 l-110 -110 110 -110 110 -110 110 110 110 110 -110 110
-110 110 -110 -110z"/>
<path d="M4540 450 l0 -150 155 0 155 0 0 150 0 150 -155 0 -155 0 0 -150z"/>
<path d="M3640 150 l0 -150 155 0 155 0 0 150 0 150 -155 0 -155 0 0 -150z"/>
</g>
</svg>
