<?xml version="1.0" standalone="no"?>
<!DOCTYPE svg PUBLIC "-//W3C//DTD SVG 20010904//EN"
 "http://www.w3.org/TR/2001/REC-SVG-20010904/DTD/svg10.dtd">
<svg version="1.0" xmlns="http://www.w3.org/2000/svg"
 width="512.000000pt" height="512.000000pt" viewBox="0 0 512.000000 512.000000"
 preserveAspectRatio="xMidYMid meet">
<metadata>
Created by potrace 1.16, written by Peter Selinger 2001-2019
</metadata>
<g transform="translate(0.000000,512.000000) scale(0.100000,-0.100000)"
fill="#000000" stroke="none">
<path d="M310 4894 c-116 -31 -220 -119 -273 -232 l-32 -67 -3 -2150 c-1
-1182 0 -2160 3 -2173 7 -28 60 -62 98 -62 15 0 40 6 55 14 15 8 261 249 547
535 l520 521 1561 0 c1560 0 1560 0 1622 21 147 50 257 180 282 336 6 34 10
431 10 947 l0 890 175 176 c149 151 179 187 207 246 27 57 33 84 36 152 6 130
-24 217 -106 304 -74 80 -175 128 -268 128 l-42 0 -11 68 c-29 167 -139 292
-302 343 -59 18 -129 19 -2042 18 -1712 0 -1989 -2 -2037 -15z m4013 -215 c83
-23 146 -109 150 -206 l2 -58 -610 -607 -610 -608 -1062 0 -1061 0 -30 -25
c-38 -32 -49 -83 -27 -129 33 -70 -23 -66 1044 -66 762 0 961 -3 961 -12 0 -7
-23 -128 -51 -268 -48 -241 -50 -258 -36 -291 10 -24 27 -41 52 -54 l38 -18
300 61 300 60 399 399 398 398 0 -761 c0 -473 -4 -782 -10 -815 -12 -65 -42
-110 -95 -147 l-40 -27 -1605 -5 c-883 -3 -1607 -6 -1610 -8 -2 -1 -206 -203
-452 -449 l-448 -447 0 1962 c0 1749 2 1967 15 2000 26 60 73 101 145 123 40
12 3898 11 3943 -2z m491 -452 c50 -39 78 -83 83 -132 9 -72 -12 -112 -111
-213 l-90 -93 -133 133 -133 133 83 83 c45 46 100 93 122 103 56 28 132 21
179 -14z m-765 -1083 l-482 -482 -159 -32 c-88 -17 -162 -29 -165 -27 -2 3 10
76 27 164 l31 158 482 482 482 483 132 -132 133 -133 -481 -481z"/>
<path d="M1102 3815 c-38 -32 -49 -83 -27 -129 34 -70 -48 -66 1269 -66 1299
0 1239 -3 1270 59 28 53 17 107 -28 143 -20 16 -100 18 -1238 18 l-1216 0 -30
-25z"/>
<path d="M1102 2535 c-59 -50 -47 -146 23 -180 31 -14 106 -15 705 -13 l672 3
29 33 c41 46 41 111 0 153 l-29 29 -685 0 -685 0 -30 -25z"/>
</g>
</svg>
