<?xml version="1.0" standalone="no"?>
<!DOCTYPE svg PUBLIC "-//W3C//DTD SVG 20010904//EN"
 "http://www.w3.org/TR/2001/REC-SVG-20010904/DTD/svg10.dtd">
<svg version="1.0" xmlns="http://www.w3.org/2000/svg"
 width="512.000000pt" height="512.000000pt" viewBox="0 0 512.000000 512.000000"
 preserveAspectRatio="xMidYMid meet">
<metadata>
Created by potrace 1.16, written by Peter Selinger 2001-2019
</metadata>
<g transform="translate(0.000000,512.000000) scale(0.100000,-0.100000)"
stroke="none">
<path d="M915 5102 c-174 -60 -299 -216 -312 -389 l-6 -73 -52 0 c-94 0 -220
-57 -292 -132 -17 -18 -47 -59 -67 -91 -69 -116 -66 -31 -66 -1695 0 -1030 3
-1517 11 -1558 23 -125 118 -257 228 -318 98 -53 130 -56 576 -56 400 0 412 1
433 20 33 31 30 92 -4 119 -26 20 -37 21 -424 21 -326 0 -405 3 -448 15 -68
20 -151 96 -183 167 l-24 53 0 1535 0 1535 28 57 c33 67 80 111 157 147 l55
26 1800 0 1800 0 53 -24 c66 -30 144 -113 166 -177 14 -43 16 -199 16 -1574
l0 -1527 -30 -61 c-35 -68 -82 -115 -149 -146 -43 -20 -67 -21 -376 -26 l-330
-5 -57 -27 c-90 -42 -147 -106 -194 -218 -71 -174 -176 -306 -315 -400 -142
-97 -276 -136 -504 -147 l-150 -6 60 50 c169 140 339 386 361 520 14 90 -54
198 -141 222 -26 7 -185 11 -466 11 -416 0 -427 0 -453 -21 -33 -26 -37 -88
-6 -119 19 -19 33 -20 448 -20 418 0 429 -1 447 -20 18 -20 18 -22 -11 -82
-70 -149 -176 -281 -313 -389 -149 -117 -150 -118 -157 -154 -9 -48 2 -82 37
-117 l29 -30 273 4 c308 5 342 11 512 92 209 99 369 261 466 473 65 142 74
156 119 188 l42 30 331 6 c185 3 345 10 362 16 61 21 138 65 180 104 86 79
145 206 145 310 l0 49 38 0 c21 0 64 7 97 15 172 45 305 190 335 365 7 44 10
279 8 737 -3 745 1 698 -69 709 -26 4 -41 1 -59 -14 l-25 -20 -5 -699 -5 -698
-24 -53 c-45 -99 -164 -182 -263 -182 l-28 0 -2 1438 -3 1438 -37 75 c-48 97
-121 169 -217 217 l-75 37 -1713 3 -1713 2 0 38 c0 100 82 218 182 263 l53 24
1800 0 1800 0 67 -33 c72 -35 124 -88 155 -158 17 -36 18 -94 21 -739 3 -699
3 -699 24 -722 30 -32 81 -31 113 2 l25 24 0 681 c0 759 -1 767 -66 877 -64
105 -144 169 -255 204 -59 18 -122 19 -1887 19 -1707 -1 -1830 -2 -1877 -18z"/>
<path d="M989 3811 l-24 -19 0 -517 0 -517 24 -19 c31 -25 85 -25 111 1 19 19
20 33 20 240 l0 220 158 0 c147 0 160 1 177 20 11 12 19 36 19 55 0 19 -8 43
-19 55 -17 19 -30 20 -177 20 l-158 0 0 160 0 160 155 0 c93 0 164 4 179 11
50 23 57 103 13 134 -17 12 -63 15 -238 15 -199 0 -219 -2 -240 -19z"/>
<path d="M1779 3811 l-24 -19 -3 -339 c-2 -215 1 -361 8 -402 23 -130 109
-243 228 -299 50 -24 69 -27 162 -27 93 0 111 3 163 27 116 54 205 168 227
290 7 35 10 191 8 403 l-3 347 -24 19 c-32 26 -82 25 -109 -4 -21 -22 -21 -31
-24 -387 -3 -352 -4 -366 -25 -405 -28 -52 -78 -100 -125 -119 -46 -20 -128
-21 -172 -2 -46 19 -104 72 -129 120 -21 40 -22 54 -27 413 -5 357 -6 373 -25
387 -28 21 -78 20 -106 -3z"/>
<path d="M2875 3805 l-25 -24 0 -506 0 -506 25 -24 c32 -33 83 -34 113 -2 21
23 22 30 24 379 l3 356 230 -351 c126 -193 240 -364 253 -379 33 -39 91 -40
121 -2 21 26 21 36 21 531 l0 504 -25 24 c-32 33 -83 34 -113 2 -21 -23 -22
-30 -24 -379 l-3 -355 -229 350 c-126 192 -240 363 -254 378 -31 38 -82 40
-117 4z"/>
<path d="M989 2481 l-24 -19 0 -407 0 -407 24 -19 c32 -26 82 -25 109 4 21 22
22 33 22 185 l0 162 113 0 c138 0 157 9 157 74 0 70 -20 80 -156 85 l-114 3 0
98 0 98 126 4 c118 3 127 4 145 27 26 32 25 82 -4 109 -22 21 -32 22 -199 22
-158 0 -178 -2 -199 -19z"/>
<path d="M1743 2478 c-23 -26 -303 -761 -303 -796 0 -35 43 -72 84 -72 43 0
65 26 97 115 l23 65 155 -2 155 -3 26 -67 c14 -36 34 -76 44 -87 23 -25 72
-28 103 -6 46 33 42 50 -111 455 -80 210 -153 391 -162 401 -25 27 -85 25
-111 -3z m102 -405 c22 -58 42 -110 43 -115 2 -4 -38 -8 -88 -8 -69 0 -91 3
-88 13 32 92 83 217 88 217 3 0 24 -48 45 -107z"/>
<path d="M2498 2481 c-339 -111 -419 -557 -140 -776 88 -69 147 -89 272 -89
87 -1 116 3 168 23 115 44 154 110 97 166 -31 32 -63 31 -128 -2 -70 -37 -190
-40 -253 -6 -67 36 -101 70 -133 135 -42 84 -43 158 -2 243 53 111 131 160
256 160 68 0 88 -4 134 -28 84 -44 136 -28 148 47 5 31 1 40 -26 65 -77 72
-271 102 -393 62z"/>
<path d="M3041 2483 c-11 -10 -24 -32 -27 -50 -5 -27 -1 -37 24 -63 29 -29 33
-30 121 -30 l91 0 0 -345 c0 -332 1 -346 20 -365 21 -21 69 -26 100 -10 36 19
40 63 40 396 l0 324 80 0 c89 0 123 11 139 47 16 35 14 57 -10 87 l-20 26
-269 0 c-240 0 -270 -2 -289 -17z"/>
</g>
</svg>
