<svg version="1.1" id="Layer_1" xmlns="http://www.w3.org/2000/svg" xmlns:xlink="http://www.w3.org/1999/xlink" x="0px" y="0px"
	 width="100%" viewBox="0 0 512 512" enable-background="new 0 0 512 512" xml:space="preserve">
<path fill="#000000" opacity="1.000000" stroke="none" 
	d="
M234.000000,1.000000 
	C251.687561,1.000000 269.375122,1.000000 287.818878,1.200128 
	C290.901581,3.293477 293.722321,2.241914 296.286987,2.705217 
	C326.676514,8.195077 355.714996,17.411509 382.765198,32.714577 
	C411.628204,49.043236 436.256714,70.148857 457.152283,95.811783 
	C480.377258,124.335632 496.428131,156.427185 505.690857,191.976471 
	C509.288818,205.784943 511.602112,219.811554 513.000000,234.000000 
	C513.000000,249.020889 513.000000,264.041779 512.999512,279.934937 
	C511.700867,289.809052 510.847351,298.901978 509.025421,307.796539 
	C502.187866,341.176758 489.421661,372.095367 470.397614,400.480469 
	C456.493500,421.226410 439.648682,439.291473 420.710388,455.298065 
	C401.605652,471.445343 380.310516,484.387787 357.120270,493.967834 
	C339.914185,501.075806 322.195801,506.449127 303.802582,509.697723 
	C298.869873,510.568939 293.536896,510.188049 289.000000,513.000000 
	C267.979095,513.000000 246.958206,513.000000 225.235886,512.725342 
	C223.783997,512.131836 223.052673,511.595154 222.280197,511.527313 
	C213.348343,510.743164 204.642456,508.713440 195.956985,506.659454 
	C170.231323,500.575653 146.100693,490.558350 123.527130,476.811493 
	C98.035194,461.287323 76.077820,441.707428 57.221973,418.628296 
	C42.228764,400.277008 29.995584,380.242432 20.743212,358.391663 
	C13.346243,340.922668 7.853439,322.925751 4.402844,304.247345 
	C3.462775,299.158661 3.927113,293.668335 1.000000,289.000000 
	C1.000000,267.979095 1.000000,246.958206 1.284753,225.240509 
	C3.312404,222.532928 2.316251,220.057327 2.711159,217.817810 
	C7.141377,192.694504 14.141619,168.376724 25.258482,145.326767 
	C43.362679,107.789070 69.357559,76.668190 102.404747,51.514332 
	C127.219269,32.626770 154.714111,18.849247 184.806870,10.276134 
	C200.949081,5.677383 217.343460,2.718682 234.000000,1.000000 
M31.364695,204.600662 
	C27.912008,217.635666 26.180042,230.988708 25.535692,244.371353 
	C24.744986,260.793762 25.553944,277.193817 28.222664,293.531769 
	C33.608692,326.505096 45.361488,356.916992 63.861439,384.667114 
	C74.378899,400.443390 86.640366,414.724609 100.719704,427.579865 
	C115.424210,441.005920 131.346527,452.562286 148.888840,461.800171 
	C176.965027,476.585327 206.772446,485.388489 238.573013,487.842438 
	C260.784607,489.556458 282.650238,488.278931 304.370941,483.756866 
	C328.809143,478.669006 351.786346,469.737457 373.389069,457.195709 
	C391.483887,446.690582 407.878601,433.906036 422.432953,419.020111 
	C434.611786,406.563751 445.431458,392.857208 454.525299,377.854187 
	C464.751007,360.983917 472.960541,343.239990 478.608612,324.352997 
	C483.370667,308.428894 486.444153,292.224548 487.845520,275.577606 
	C489.715240,253.366928 488.317871,231.482269 483.823669,209.763596 
	C478.010162,181.669464 467.330292,155.518784 451.650635,131.446747 
	C437.756531,110.115921 420.891479,91.438354 400.998688,75.596970 
	C384.677765,62.600002 366.868713,51.988644 347.622437,43.814758 
	C321.384338,32.671497 294.034180,26.473505 265.572296,25.431267 
	C250.281204,24.871326 235.062759,25.803717 219.906693,28.305580 
	C190.380081,33.179634 162.814331,43.224373 137.275009,58.774929 
	C118.460747,70.230682 101.606117,84.023033 86.670609,100.320915 
	C72.761887,115.498344 60.985340,132.048660 51.460987,150.236877 
	C42.558167,167.238159 35.894131,185.094666 31.364695,204.600662 
z"/>
<path fill="#000000" opacity="1.000000" stroke="none" 
	d="
M225.731934,218.376236 
	C233.726578,215.830246 241.559906,214.375397 249.489899,213.874054 
	C265.573334,212.857224 279.981842,216.517090 289.694275,230.658463 
	C294.980133,238.354767 294.921387,247.228287 294.002258,256.147247 
	C291.463196,280.785126 281.265564,303.463806 275.806458,327.358704 
	C274.399200,333.518280 273.353729,339.717010 272.622681,345.946320 
	C271.716003,353.671936 278.370789,360.101257 286.890564,360.646210 
	C295.629974,361.205170 304.058685,359.857361 312.190979,356.611694 
	C314.181549,364.669586 309.870544,373.286285 302.949188,375.626678 
	C293.536072,378.809601 284.473846,383.092041 274.573212,384.760742 
	C259.224854,387.347626 244.066513,388.017883 230.442352,378.685120 
	C221.379868,372.477173 215.737549,364.318726 215.509125,352.638306 
	C215.190460,336.341949 220.230026,321.238922 224.667938,305.968445 
	C228.788208,291.791016 233.273422,277.710938 236.130569,263.204559 
	C236.861282,259.494476 237.482742,255.609024 237.183350,251.882141 
	C236.578995,244.358551 231.309204,239.983002 223.465866,239.387772 
	C216.672363,238.872208 210.265839,240.357162 203.957001,242.609451 
	C202.259018,243.215652 200.647720,244.193344 198.733292,243.939377 
	C197.220032,234.484314 201.703140,226.738358 210.318436,223.781693 
	C215.340759,222.058105 220.341339,220.271103 225.731934,218.376236 
z"/>
<path fill="#000000" opacity="1.000000" stroke="none" 
	d="
M291.938416,188.428619 
	C272.927795,193.082642 253.050522,182.351730 249.254211,165.073685 
	C245.562241,148.270615 259.241730,129.480042 276.603516,128.721039 
	C283.845123,128.404465 291.174683,127.846405 298.084076,131.413895 
	C309.728241,137.426025 316.811035,146.555008 316.196808,159.856934 
	C315.589294,173.014099 308.298676,182.068619 296.044617,187.009705 
	C294.815765,187.505188 293.552094,187.914398 291.938416,188.428619 
z"/>
</svg>