<svg version="1.1" id="Layer_1" xmlns="http://www.w3.org/2000/svg" xmlns:xlink="http://www.w3.org/1999/xlink" x="0px" y="0px"
	 width="100%" viewBox="0 0 512 512" enable-background="new 0 0 512 512" xml:space="preserve">
<path fill="#FFFFFF" opacity="1.000000" stroke="none" 
	d="
M155.915771,1.345875 
	C273.458008,1.000000 390.916046,1.016398 508.373993,0.920627 
	C511.888611,0.917761 513.114746,1.339480 513.111633,5.370934 
	C512.981384,173.144196 512.988098,340.917572 513.083313,508.690887 
	C513.085266,512.131287 512.584106,513.114319 508.811951,513.109985 
	C391.853851,512.975525 274.895569,513.000000 157.468658,513.000000 
	C156.445389,511.563293 157.552094,510.895233 158.355850,510.100006 
	C239.141525,430.175537 319.143677,349.466370 399.590942,269.202942 
	C407.817932,260.994812 407.828125,253.037949 399.645569,244.849625 
	C320.493683,165.642349 241.296906,86.479958 162.156418,7.261311 
	C160.152405,5.255302 157.435944,4.112443 155.915771,1.345875 
z"/>
<path fill="#FFFFFF" opacity="1.000000" stroke="none" 
	d="
M143.121796,512.664307 
	C96.858650,513.000000 50.717255,512.974182 4.576083,513.064514 
	C1.812201,513.069946 0.900587,512.780579 0.902683,509.579742 
	C1.012911,341.172211 1.015306,172.764603 0.890683,4.357104 
	C0.888180,0.975147 2.048358,0.948454 4.639206,0.952125 
	C51.113625,1.017977 97.588165,1.000000 144.531342,1.000000 
	C145.265015,1.746921 144.929779,2.286406 144.348053,2.680111 
	C132.497025,10.700909 123.531387,21.805155 113.619820,31.849905 
	C105.717598,39.858299 106.573082,48.378414 115.023766,56.832268 
	C179.219574,121.052193 243.433365,185.254120 307.640686,249.462540 
	C315.177429,256.999390 315.177063,257.000854 307.663757,264.514221 
	C244.280853,327.897675 180.897629,391.280762 117.514618,454.664124 
	C116.336487,455.842255 115.139297,457.001984 113.987610,458.205719 
	C106.558777,465.970581 106.340050,474.046661 113.515602,482.200165 
	C116.926186,486.075623 120.710197,489.612366 124.416260,493.207642 
	C130.151642,498.771515 135.388428,504.853027 141.663940,509.858490 
	C142.456665,510.490753 143.065384,511.282745 143.121796,512.664307 
z"/>
<path fill="#000000" opacity="1.000000" stroke="none" 
	d="
M143.464645,513.000000 
	C133.451950,503.620056 123.953339,494.189087 114.341682,484.874786 
	C105.079353,475.899017 104.484802,465.880219 114.210632,456.184601 
	C179.439713,391.158630 244.491486,325.954834 309.728882,260.937256 
	C313.011597,257.665588 312.741302,256.090332 309.638519,252.996399 
	C244.182266,187.726593 178.840576,122.341881 113.469009,56.987110 
	C104.482651,48.003059 105.216026,38.521248 113.392693,30.138403 
	C121.183601,22.151049 129.134949,14.319716 137.049896,6.454133 
	C139.243622,4.274082 141.601700,2.286463 144.899445,1.354609 
	C148.361282,1.000000 151.722580,1.000000 155.541931,1.000000 
	C160.351379,3.374869 163.563995,7.073245 166.997086,10.505793 
	C244.753464,88.250229 322.440521,166.064224 400.344177,243.660751 
	C408.566864,251.851028 408.556122,262.154694 400.407715,270.272614 
	C321.449524,348.935089 242.697357,427.804413 163.886673,506.615021 
	C161.799683,508.701965 159.799988,510.891357 157.077408,512.659668 
	C152.643097,513.000000 148.286194,513.000000 143.464645,513.000000 
z"/>
</svg>