<?xml version="1.0" standalone="no"?>
<!DOCTYPE svg PUBLIC "-//W3C//DTD SVG 20010904//EN"
 "http://www.w3.org/TR/2001/REC-SVG-20010904/DTD/svg10.dtd">
<svg version="1.0" xmlns="http://www.w3.org/2000/svg"
 width="512.000000pt" height="512.000000pt" viewBox="0 0 512.000000 512.000000"
 preserveAspectRatio="xMidYMid meet">
<metadata>
Created by potrace 1.16, written by Peter Selinger 2001-2019
</metadata>
<g transform="translate(0.000000,512.000000) scale(0.100000,-0.100000)"
fill="#000000" stroke="none">
<path d="M1752 4859 c-251 -29 -482 -145 -655 -328 -345 -366 -392 -920 -113
-1339 373 -561 1178 -640 1656 -162 134 134 230 301 282 493 20 71 23 107 23
267 0 163 -3 195 -23 270 -120 439 -480 750 -925 799 -107 12 -140 12 -245 0z
m390 -249 c302 -101 521 -349 584 -659 22 -110 15 -284 -15 -389 -91 -315
-356 -559 -675 -619 -127 -24 -295 -14 -416 26 -139 45 -235 103 -344 209
-392 381 -329 1024 130 1331 156 105 292 142 499 137 127 -3 149 -6 237 -36z"/>
<path d="M4340 2543 c-17 -3 -182 -161 -491 -470 l-466 -465 -37 61 c-111 183
-314 392 -500 516 -199 132 -408 219 -646 267 -98 19 -145 23 -320 23 -221 -1
-306 -11 -475 -60 -677 -196 -1165 -772 -1245 -1470 -20 -180 -9 -259 39 -285
13 -7 438 -10 1290 -10 792 0 1271 -4 1271 -9 0 -6 -18 -61 -40 -123 -49 -139
-51 -179 -11 -219 22 -22 39 -29 68 -29 22 0 193 52 413 125 l375 125 693 693
c737 737 720 718 693 785 -15 37 -522 542 -543 542 -9 0 -22 2 -30 4 -7 2 -24
1 -38 -1z m198 -426 l162 -162 -55 -55 -55 -55 -165 165 -165 165 52 52 c29
29 55 53 58 53 3 0 78 -73 168 -163z m-2367 123 c339 -71 651 -255 861 -506
66 -79 188 -260 188 -278 0 -6 -65 -76 -144 -156 l-143 -145 -49 -147 -48
-148 -1233 0 -1233 0 0 28 c0 63 34 224 70 333 109 328 314 599 598 790 211
141 403 211 697 253 74 11 343 -4 436 -24z m1802 -1012 l-463 -463 -165 165
-165 165 462 462 463 463 165 -165 165 -165 -462 -462z m-681 -569 c-11 -10
-323 -112 -327 -107 -3 2 21 80 51 172 l56 168 114 -113 c63 -62 110 -116 106
-120z"/>
</g>
</svg>
