<?xml version="1.0" standalone="no"?>
<!DOCTYPE svg PUBLIC "-//W3C//DTD SVG 20010904//EN"
 "http://www.w3.org/TR/2001/REC-SVG-20010904/DTD/svg10.dtd">
<svg version="1.0" xmlns="http://www.w3.org/2000/svg"
 width="512.000000pt" height="512.000000pt" viewBox="0 0 512.000000 512.000000"
 preserveAspectRatio="xMidYMid meet">
<metadata>
Created by potrace 1.16, written by Peter Selinger 2001-2019
</metadata>
<g transform="translate(0.000000,512.000000) scale(0.100000,-0.100000)"
fill="#000000" stroke="none">
<path d="M145 5101 c-22 -10 -57 -36 -77 -57 -74 -77 -68 84 -68 -1886 l0
-1773 24 -51 c13 -28 41 -65 62 -82 74 -61 82 -62 570 -62 l442 0 4 -197 c3
-159 7 -206 21 -237 28 -63 60 -99 118 -131 l54 -30 457 -3 456 -3 4 -197 c3
-174 6 -202 24 -242 26 -56 76 -107 129 -131 38 -18 101 -19 1303 -19 1396 0
1293 -5 1372 67 87 78 80 -78 80 1646 0 1357 -2 1532 -15 1565 -20 46 -562
594 -620 625 -37 21 -56 22 -280 25 l-240 3 -285 284 c-344 341 -293 315 -609
315 l-216 0 -275 274 c-200 200 -287 280 -320 295 -44 20 -61 21 -1060 21
-968 0 -1017 -1 -1055 -19z m1985 -365 l0 -205 -417 -3 -418 -3 -54 -30 c-57
-32 -90 -67 -118 -131 -17 -37 -18 -124 -21 -1516 l-2 -1478 -436 0 -435 0
-24 25 -25 24 0 1737 0 1738 22 23 21 23 954 0 953 0 0 -204z m325 -66 l140
-140 -143 0 -142 0 0 140 c0 77 1 140 3 140 1 0 65 -63 142 -140z m785 -530
l0 -209 -422 -3 c-413 -3 -424 -4 -464 -25 -48 -25 -100 -81 -123 -132 -14
-33 -16 -175 -19 -1518 l-2 -1483 -426 0 c-478 0 -475 0 -493 68 -15 52 -15
3392 0 3444 19 71 -41 67 1007 68 l942 0 0 -210z m325 -70 l140 -140 -143 0
-142 0 0 140 c0 77 1 140 3 140 1 0 65 -63 142 -140z m785 -555 c0 -184 3
-242 14 -263 21 -41 68 -81 107 -92 18 -6 132 -10 251 -10 l218 0 0 -1462 0
-1462 -22 -23 -21 -23 -1227 0 -1227 0 -24 26 -24 26 0 1735 0 1735 28 24 28
24 950 0 949 0 0 -235z m325 -45 l140 -140 -143 0 -142 0 0 140 c0 77 1 140 3
140 1 0 65 -63 142 -140z"/>
<path d="M494 4718 c-80 -78 -91 -116 -49 -166 15 -18 35 -32 46 -32 18 0 19
-10 19 -210 l0 -210 -60 0 c-51 0 -65 -4 -85 -25 -31 -30 -34 -92 -6 -126 19
-24 22 -24 230 -27 l211 -3 30 30 c40 40 40 82 1 122 -26 25 -37 29 -85 29
l-56 0 0 306 c0 213 -4 312 -12 327 -18 34 -40 46 -82 47 -34 0 -46 -7 -102
-62z"/>
<path d="M450 3650 c-45 -45 -35 -114 21 -143 28 -15 54 -17 141 -15 97 3 109
5 132 27 35 33 36 92 1 126 -23 24 -30 25 -150 25 -111 0 -127 -2 -145 -20z"/>
<path d="M459 3317 c-44 -34 -48 -106 -8 -143 18 -16 40 -20 138 -22 115 -4
118 -3 149 23 42 35 45 93 7 130 -23 24 -30 25 -147 25 -81 -1 -128 -5 -139
-13z"/>
<path d="M448 2960 c-26 -27 -30 -36 -25 -68 4 -22 17 -46 32 -59 24 -21 36
-23 136 -23 144 0 178 18 179 93 0 27 -7 45 -25 62 -23 24 -30 25 -145 25
l-122 0 -30 -30z"/>
<path d="M449 2621 c-39 -40 -39 -82 1 -123 l30 -30 126 4 c118 3 127 4 145
27 28 34 25 96 -6 126 -23 24 -30 25 -145 25 -121 0 -122 0 -151 -29z"/>
<path d="M455 2288 c-15 -14 -28 -38 -32 -60 -5 -32 -1 -41 25 -68 l30 -30
122 0 c115 0 122 1 145 25 18 17 25 35 25 62 -1 75 -35 93 -179 93 -100 0
-112 -2 -136 -22z"/>
<path d="M480 1963 c-66 -24 -78 -117 -21 -160 11 -8 58 -12 139 -13 117 0
124 1 147 25 38 37 35 95 -6 129 -29 25 -36 26 -137 25 -59 0 -114 -3 -122 -6z"/>
<path d="M1665 4183 c-62 -14 -93 -30 -133 -67 -57 -52 -81 -105 -82 -177 0
-70 25 -99 86 -99 48 0 80 29 90 80 17 89 111 113 150 38 24 -47 4 -88 -79
-161 -193 -168 -238 -232 -245 -345 -5 -75 8 -107 51 -122 48 -16 382 -13 416
5 54 27 65 105 20 143 -15 14 -46 18 -152 22 l-132 5 51 50 c28 28 85 81 127
118 99 89 132 152 131 252 -1 103 -45 181 -130 227 -48 25 -130 41 -169 31z"/>
<path d="M1590 3073 c-51 -20 -72 -80 -46 -131 8 -16 23 -32 31 -36 9 -3 70
-6 136 -6 114 0 121 1 144 25 35 34 34 93 -1 126 -24 22 -34 24 -137 26 -62 1
-119 0 -127 -4z"/>
<path d="M1582 2726 c-38 -18 -56 -57 -47 -103 10 -55 33 -63 176 -63 126 0
128 0 148 26 28 36 27 86 -3 121 -23 27 -28 28 -132 30 -80 3 -118 -1 -142
-11z"/>
<path d="M1560 2370 c-45 -45 -35 -114 21 -143 28 -15 54 -17 142 -15 105 3
110 4 133 31 32 38 32 90 -1 122 -23 24 -30 25 -150 25 -111 0 -127 -2 -145
-20z"/>
<path d="M1569 2037 c-44 -34 -50 -93 -15 -134 24 -27 27 -28 143 -31 117 -4
120 -3 151 23 42 35 45 93 7 130 -23 24 -30 25 -147 25 -81 -1 -128 -5 -139
-13z"/>
<path d="M1556 1679 c-35 -41 -34 -83 3 -120 29 -29 31 -29 141 -29 146 0 179
17 180 93 0 27 -7 45 -25 62 -23 24 -30 25 -149 25 l-124 0 -26 -31z"/>
<path d="M1559 1341 c-20 -20 -29 -39 -29 -61 0 -22 9 -41 29 -61 29 -29 31
-29 141 -29 148 0 180 16 180 90 0 74 -32 90 -180 90 -110 0 -112 0 -141 -29z"/>
<path d="M2735 3576 c-56 -18 -93 -44 -126 -90 -56 -77 -25 -156 62 -156 34 0
47 6 73 35 43 46 84 54 120 23 38 -32 39 -83 2 -115 -15 -12 -36 -23 -47 -23
-28 0 -75 -26 -83 -45 -25 -66 11 -127 82 -138 70 -12 98 -83 52 -133 -35 -37
-74 -32 -126 16 -55 50 -92 53 -135 11 -48 -48 -35 -108 37 -171 52 -45 93
-60 169 -60 107 0 181 43 231 132 39 73 40 169 2 244 l-27 51 27 53 c103 208
-92 435 -313 366z"/>
<path d="M2669 2451 c-20 -20 -29 -39 -29 -61 0 -22 9 -41 29 -61 29 -29 30
-29 149 -29 113 0 121 1 146 25 19 18 26 34 26 62 -1 76 -34 93 -180 93 -110
0 -112 0 -141 -29z"/>
<path d="M3183 2456 c-22 -19 -28 -32 -28 -66 0 -34 6 -47 28 -66 l28 -24 715
0 716 0 29 29 c20 20 29 39 29 61 0 22 -9 41 -29 61 l-29 29 -716 0 -715 0
-28 -24z"/>
<path d="M2669 2111 c-31 -31 -37 -67 -17 -104 22 -42 38 -46 166 -47 117 0
124 1 147 25 36 35 34 88 -4 126 -29 29 -31 29 -146 29 -115 0 -117 0 -146
-29z"/>
<path d="M3370 2127 c-53 -27 -62 -98 -18 -144 21 -23 22 -23 313 -23 276 0
294 1 317 20 48 37 41 118 -13 145 -38 20 -560 22 -599 2z"/>
<path d="M4225 2129 c-52 -30 -63 -102 -20 -144 24 -25 24 -25 234 -25 l209 0
27 32 c22 26 26 39 21 67 -3 19 -15 44 -26 55 -19 20 -34 21 -223 24 -136 1
-209 -2 -222 -9z"/>
<path d="M2693 1790 c-36 -15 -56 -55 -50 -98 11 -63 31 -72 174 -72 118 0
125 1 148 25 33 32 33 84 1 122 -24 27 -27 28 -138 30 -62 2 -123 -2 -135 -7z"/>
<path d="M3464 1790 c-56 -22 -72 -103 -29 -145 24 -25 27 -25 193 -25 163 0
169 1 190 23 14 15 22 36 22 59 0 87 -25 98 -212 97 -79 0 -153 -4 -164 -9z"/>
<path d="M4055 1788 c-33 -19 -44 -41 -45 -85 0 -33 5 -46 26 -62 26 -20 38
-21 318 -21 213 1 295 4 307 13 44 34 48 106 8 143 -19 18 -43 19 -308 21
-204 2 -292 0 -306 -9z"/>
<path d="M2693 1446 c-58 -26 -72 -98 -28 -141 23 -24 30 -25 150 -25 120 0
127 1 150 25 33 32 33 84 1 122 -23 27 -28 28 -132 30 -79 3 -118 -1 -141 -11z"/>
<path d="M3204 1446 c-56 -25 -69 -101 -24 -146 20 -20 36 -20 745 -20 709 0
725 0 745 20 46 46 32 122 -26 146 -48 20 -1394 20 -1440 0z"/>
<path d="M2670 1092 c-13 -10 -23 -33 -27 -58 -4 -33 -1 -45 20 -70 l25 -29
127 0 c126 0 127 0 151 28 32 38 32 90 -1 122 -23 24 -30 25 -148 25 -104 0
-128 -3 -147 -18z"/>
<path d="M3352 1090 c-48 -45 -35 -121 24 -146 43 -18 533 -20 584 -3 58 21
72 96 27 147 -20 22 -22 22 -317 22 -284 0 -297 -1 -318 -20z"/>
<path d="M4201 1084 c-30 -38 -28 -94 5 -125 25 -23 30 -24 217 -27 168 -2
196 0 226 15 56 29 66 98 21 143 -19 19 -34 20 -234 20 l-215 0 -20 -26z"/>
<path d="M2682 763 c-18 -7 -42 -57 -42 -87 0 -14 11 -38 24 -53 24 -28 25
-28 151 -28 126 0 127 0 151 28 32 38 32 90 -1 122 -23 24 -29 25 -147 24 -68
0 -129 -3 -136 -6z"/>
<path d="M3435 745 c-33 -32 -33 -84 -1 -122 24 -28 24 -28 171 -31 81 -2 158
-1 172 2 41 11 63 42 63 90 0 36 -5 48 -26 65 -25 19 -40 21 -191 21 -161 0
-164 0 -188 -25z"/>
<path d="M4035 745 c-48 -47 -26 -134 37 -150 13 -3 147 -5 300 -3 254 3 278
4 297 22 40 37 36 109 -8 143 -12 9 -94 12 -309 13 l-293 0 -24 -25z"/>
</g>
</svg>
