<svg id="Layer_2" enable-background="new 0 0 512 512" height="512" viewBox="0 0 512 512" width="512" xmlns="http://www.w3.org/2000/svg"><g><g><path d="m10 10.002h492v319.995h-492z" fill="#ffffff"/><path d="m30 30.002h452v279.995h-452z" fill="#ffffff"/></g><g><path d="m350 270h90v40h-90z" fill="#ffffff"/><path d="m350 300h90v10h-90z" fill="#ffffff"/></g><g fill="#ffffff"><path d="m246 380h20v122h-20z"/><path d="m366 502h-20l-50-122h20z"/><path d="m146 502h20l50-122h-20z"/><path d="m241 130h30v430h-30z" transform="matrix(0 1 -1 0 601 89)"/></g><path d="m246 235h20v270h-20z" fill="#466089" transform="matrix(0 1 -1 0 626 114)"/></g></svg>